# xmcd
# Track frame offsets:
# 150
# 17852
# 29065
# 44137
#
# Disc length: 719 seconds
# Revision: 0
# Processed by: cddbd v1.4PL0 Copyright (c) Steve Scherf et al.
# Submitted via: VisiTrax 2.9.3.171 - For more info visit www.synapsa.com
#
DISCID=3602cd04
DTITLE=Dan Brodie and The Broken Arrows - Jesus try and save me
DYEAR=2002
DGENRE=Country-Rock
TTITLE0=Jesus try and save me
TTITLE1=Sarah
TTITLE2=I won't follow you down
TTITLE3=I ain't got nothing
EXTD=
EXTT0=
EXTT1=
EXTT2=
EXTT3=
PLAYORDER=
